# xmcd
#
# Track frame offsets: 
#        150
#        14802
#        29007
#        41687
#        55960
#        68475
#        80835
#        92667
#        105200
#        117807
#        129465
#        141007
#        152712
#        167067
#        179062
#        191070
#        203317
#        216992
#        229385
#        241335
#        254847
#        269345
#        280627
#        293152
#        305305
#        317622
#        329330
#
# Disc length: 4546 seconds
#
# Revision: 3
# Processed by: cddbd v1.5.2PL0 Copyright (c) Steve Scherf et al.
# Submitted via: ExactAudioCopyFreeDBPlugin 1.0
#
DISCID=9011c01b
DTITLE=Louis Jordan - Let the Good Times Roll:  The Complete US Decca 
DTITLE=Recordings, 1938-1954 [Bear Family box set]
DYEAR=1992
DGENRE=Rhythm and Blues
TTITLE0=Toodle-Loo on Down
TTITLE1=So Good
TTITLE2=Away from You
TTITLE3=Honey in the Bee Ball
TTITLE4=Barnacle Bill the Sailor
TTITLE5=Flat Face
TTITLE6=Keep A-Knockin' (But You Can't Come In)
TTITLE7=Sam Jones Done Snagged His Britches On
TTITLE8=Swinging in a Cocoanut Tree
TTITLE9=Doug the Jitterbug
TTITLE10=At the Swing Cat's Ball
TTITLE11=Jake, What a Snake
TTITLE12=Honeysuckle Rose
TTITLE13='Fore Day Blues
TTITLE14=But I'll Be Back
TTITLE15=You Ain't Nowhere
TTITLE16=You're My Meat
TTITLE17=June Teenth Jamboree
TTITLE18=You Run Your Mouth and I'll Run My Business
TTITLE19=I'm Alabama Bound
TTITLE20=Hard Lovin' Blues
TTITLE21=You Got to Go When the Wagon Comes
TTITLE22=Lovie Joe
TTITLE23=Somebody Done Hoodooed the Hoodoo Man
TTITLE24=Bounce the Ball (Do Da Dittle Um Day)
TTITLE25=Penthouse in the Basement
TTITLE26=After School Swing Session (Swinging iith Symphony Sid)
EXTD=
EXTT0=
EXTT1=
EXTT2=
EXTT3=
EXTT4=
EXTT5=
EXTT6=
EXTT7=
EXTT8=
EXTT9=
EXTT10=
EXTT11=
EXTT12=
EXTT13=
EXTT14=
EXTT15=
EXTT16=
EXTT17=
EXTT18=
EXTT19=
EXTT20=
EXTT21=
EXTT22=
EXTT23=
EXTT24=
EXTT25=
EXTT26=
PLAYORDER=
